<svg width="60" height="60" viewBox="0 0 60 60" fill="none" xmlns="http://www.w3.org/2000/svg">
<path d="M48.125 6.875H11.875C9.11358 6.875 6.875 9.11358 6.875 11.875V48.125C6.875 50.8864 9.11358 53.125 11.875 53.125H48.125C50.8864 53.125 53.125 50.8864 53.125 48.125V11.875C53.125 9.11358 50.8864 6.875 48.125 6.875Z" stroke="#4A9195" stroke-linecap="round" stroke-linejoin="round"/>
<path d="M24.0025 38.3125C25.3825 39.47 26.8737 40 30.2212 40H31.0012C32.3271 39.9997 33.5986 39.4727 34.536 38.5351C35.4734 37.5974 36 36.3259 36 35C35.9993 33.6743 35.4723 32.4032 34.5346 31.4661C33.597 30.5289 32.3256 30.0025 31 30.0025C32.3259 30.0025 33.5974 29.4759 34.5351 28.5385C35.4727 27.601 35.9997 26.3296 36 25.0037C35.9997 23.6781 35.4729 22.4068 34.5355 21.4695C33.5982 20.5321 32.3269 20.0053 31.0012 20.005L30.2238 20C26.875 19.9912 25.3837 20.5175 24 21.67M27.1587 30.0025H31.0012" stroke="#4A9195" stroke-linecap="round" stroke-linejoin="round"/>
</svg>
