<svg width="60" height="60" viewBox="0 0 60 60" fill="none" xmlns="http://www.w3.org/2000/svg">
<path d="M48.125 6.875H11.875C9.11358 6.875 6.875 9.11358 6.875 11.875V48.125C6.875 50.8864 9.11358 53.125 11.875 53.125H48.125C50.8864 53.125 53.125 50.8864 53.125 48.125V11.875C53.125 9.11358 50.8864 6.875 48.125 6.875Z" stroke="#4A9195" stroke-linecap="round" stroke-linejoin="round"/>
<path d="M23.375 26.625C23.3753 25.6434 23.5935 24.674 24.014 23.787C24.4344 22.8999 25.0465 22.1173 25.8062 21.4955C26.5658 20.8738 27.454 20.4284 28.4067 20.1916C29.3593 19.9548 30.3527 19.9325 31.315 20.1262C34.0937 20.66 36.3112 23.0637 36.5887 25.8787C36.7937 27.9737 36.1312 30.04 34.685 31.31C32.005 33.6613 23.375 40 23.375 40H36.625" stroke="#4A9195" stroke-linecap="round" stroke-linejoin="round"/>
</svg>
